<svg version="1.1" xmlns="http://www.w3.org/2000/svg" xmlns:xlink="http://www.w3.org/1999/xlink"
	 viewBox="0 0 192 80" enable-background="new 0 0 192 80"
	 xml:space="preserve">
<g>
	
		<circle fill="#FFFFFF" stroke="#393432" stroke-width="1.4" stroke-miterlimit="10" cx="24.6918945" cy="25.2802734" r="17.5332031"/>
	<g>
		<g>
			
				<circle fill="#FFFFFF" stroke="#393432" stroke-width="1.4" stroke-miterlimit="10" cx="38.9182129" cy="42.5595703" r="29.0422363"/>
			<g>
				<path fill="none" stroke="#393432" stroke-linejoin="round" stroke-miterlimit="10" d="M13.0097656,55.3125
					c0,0,3.0917969,8.375,24.4667969,2.6445312c0,0-13.4375-14.7646484-16.75-30.3320312
					C6.7602539,42.25,13.0097656,55.3125,13.0097656,55.3125z"/>
				<path fill="none" stroke="#393432" stroke-linejoin="round" stroke-miterlimit="10" d="M63.3515625,26.8125
					c-2.3125-1.5322266-7.875,0.5-7.875,0.5s13.125,12.6875,9.300293,28.7431641c0,0-7.050293,7.7568359-27.300293,1.9013672
					c11.875-12.8320312,18-30.6445312,18-30.6445312"/>
				<path fill="none" stroke="#393432" stroke-linejoin="round" stroke-miterlimit="10" d="M20.7265625,27.625
					c17.5-7.0537109,34.75-0.3125,34.75-0.3125c-3.9375-15-15.8706055-13.652832-17.0292969-13.7944336
					C33.9140625,13.5180664,23.6015625,16.375,20.7265625,27.625c-4.0556641-1.6655273-6.3393555-1.2270508-6.3393555-1.2270508"/>
				<path fill="none" stroke="#393432" stroke-linejoin="round" stroke-miterlimit="10" d="M38.5200195,71.6015625
					c0,0-1.105957-6.25-1.043457-13.6445312"/>
			</g>
		</g>
		<path fill="#393432" d="M13.4082031,56.7539062C20.90625,70.9501953,38.4916992,76.3798828,52.6899414,68.8828125
			c14.1948242-7.4970703,19.6245117-25.0839844,12.1264648-39.2807617
			c5.1860352,9.8193359-2.1186523,23.8569336-16.3134766,31.355957
			C34.3081055,68.4550781,18.5947266,66.5722656,13.4082031,56.7539062z"/>
	</g>
</g>
<g>
	<path fill="#393432" d="M84.4462891,32.7631836c0-0.2265625,0.09375-0.4135742,0.2822266-0.5610352
		s0.4052734-0.2211914,0.6494141-0.2211914c0.3105469,0,0.5322266,0.1362305,0.6660156,0.4082031l4.6240234,12.7495117
		l3.7060547-11.6958008c0.0800781-0.3398438,0.2988281-0.5097656,0.6572266-0.5097656
		c0.3398438,0,0.5488281,0.1879883,0.6279297,0.5634766l3.6035156,11.8666992l4.6923828-12.9726562
		c0.0683594-0.2729492,0.2832031-0.409668,0.6464844-0.409668c0.2490234,0,0.4638672,0.0678711,0.6455078,0.2041016
		c0.1816406,0.1357422,0.2724609,0.3173828,0.2724609,0.5439453c0,0.2041016-0.0458984,0.3740234-0.1367188,0.5097656
		l-5.3037109,14.5864258c-0.1357422,0.3173828-0.3486328,0.4755859-0.6386719,0.4755859
		c-0.2890625,0-0.4853516-0.1425781-0.5878906-0.4287109l-3.7861328-11.9985352L91.328125,47.671875
		c-0.1357422,0.4199219-0.3828125,0.6289062-0.7421875,0.6289062c-0.3603516,0-0.6074219-0.203125-0.7421875-0.6113281
		l-5.2626953-14.4506836C84.4902344,32.9667969,84.4462891,32.8085938,84.4462891,32.7631836z"/>
	<path fill="#393432" d="M107.4296875,43.7792969c0-1.7001953,0.6738281-2.8842773,2.0224609-3.5532227
		c1.3486328-0.668457,3.3154297-1.0029297,5.8994141-1.0029297H117.1875v-0.8842773
		c0-1.3598633-0.3564453-2.5327148-1.0712891-3.519043c-0.7138672-0.9858398-1.7841797-1.4790039-3.2128906-1.4790039
		c-0.8613281,0-1.6660156,0.1591797-2.4140625,0.4760742c-0.7480469,0.3178711-1.1337891,0.4760742-1.1552734,0.4760742
		c-0.2275391,0-0.4082031-0.1020508-0.5439453-0.3061523c-0.1367188-0.2036133-0.2041016-0.4077148-0.2041016-0.6118164
		c0-0.3852539,0.4697266-0.7421875,1.4111328-1.0708008c0.9394531-0.3286133,1.9316406-0.4931641,2.9746094-0.4931641
		c2.0175781,0,3.5019531,0.6176758,4.4541016,1.8530273c0.9521484,1.2358398,1.4277344,2.7939453,1.4277344,4.6748047v8.9755859
		c0,0.2050781-0.0791016,0.3808594-0.2382812,0.5273438c-0.1582031,0.1484375-0.3515625,0.2207031-0.5771484,0.2207031
		c-0.2275391,0-0.4199219-0.0722656-0.578125-0.2207031c-0.1591797-0.1464844-0.2382812-0.3222656-0.2382812-0.5273438v-1.6308594
		c-1.4960938,1.7226562-3.1962891,2.5839844-5.0996094,2.5839844c-1.3828125,0-2.5107422-0.3798828-3.3837891-1.1396484
		C107.8662109,46.3691406,107.4296875,45.2519531,107.4296875,43.7792969z M109.0957031,43.7109375
		c0,1.0195312,0.2998047,1.7851562,0.9013672,2.2949219c0.5996094,0.5097656,1.3876953,0.765625,2.3623047,0.765625
		c1.15625,0,2.25-0.4140625,3.28125-1.2421875c1.03125-0.8261719,1.546875-1.6367188,1.546875-2.4296875v-2.5166016h-1.6660156
		c-0.9746094,0-1.7910156,0.0341797-2.4482422,0.1020508s-1.3144531,0.1987305-1.9716797,0.3911133
		c-0.6572266,0.1933594-1.15625,0.5097656-1.4960938,0.9511719C109.265625,42.4707031,109.0957031,43.03125,109.0957031,43.7109375z
		"/>
	<path fill="#393432" d="M123.2060547,47.3144531V32.6948242c0-0.453125,0.2714844-0.6796875,0.8154297-0.6796875
		c0.2265625,0,0.4199219,0.0625,0.578125,0.1870117s0.2382812,0.2890625,0.2382812,0.4926758v1.734375
		c0.4082031-0.7480469,1.0146484-1.371582,1.8193359-1.8701172c0.8037109-0.4985352,1.7392578-0.7480469,2.8046875-0.7480469
		h1.2236328c0.2041016,0,0.3798828,0.0737305,0.5273438,0.2211914s0.2207031,0.3344727,0.2207031,0.5605469
		c0,0.2270508-0.0732422,0.4140625-0.2207031,0.5610352c-0.1474609,0.1479492-0.3232422,0.2211914-0.5273438,0.2211914h-1.2236328
		c-1.2236328,0-2.2949219,0.4589844-3.2128906,1.3769531s-1.3769531,2.1137695-1.3769531,3.5869141v8.9755859
		c0,0.1816406-0.0849609,0.3515625-0.2548828,0.5107422S124.2480469,48.0625,124.0214844,48.0625
		s-0.4189453-0.0722656-0.5771484-0.2207031C123.2851562,47.6953125,123.2060547,47.5195312,123.2060547,47.3144531z"/>
	<path fill="#393432" d="M134.0517578,47.3144531V32.6948242c0-0.453125,0.2714844-0.6796875,0.8154297-0.6796875
		c0.2265625,0,0.4199219,0.0625,0.578125,0.1870117s0.2382812,0.2890625,0.2382812,0.4926758v1.7001953
		c0.9746094-1.722168,2.4931641-2.5839844,4.5556641-2.5839844c1.1103516,0,2.1025391,0.3061523,2.9755859,0.9179688
		c0.8720703,0.6118164,1.5351562,1.4394531,1.9892578,2.4819336c0.5654297-1.1103516,1.3134766-1.9550781,2.2431641-2.5327148
		c0.9296875-0.578125,1.9042969-0.8671875,2.9248047-0.8671875c1.5410156,0,2.8671875,0.5610352,3.9775391,1.6831055
		s1.6660156,2.6347656,1.6660156,4.5390625v9.28125c0,0.1816406-0.0849609,0.3515625-0.2548828,0.5107422
		S155.3916016,48.0625,155.1660156,48.0625c-0.2275391,0-0.4199219-0.078125-0.578125-0.2373047
		c-0.1591797-0.1591797-0.2382812-0.3291016-0.2382812-0.5107422v-9.28125c0-1.4506836-0.4248047-2.5893555-1.2753906-3.4169922
		c-0.8496094-0.8271484-1.8183594-1.2412109-2.90625-1.2412109c-1.1337891,0-2.1367188,0.4194336-3.0097656,1.2578125
		c-0.8720703,0.8388672-1.3085938,1.9160156-1.3085938,3.2299805v9.4868164c0,0.4755859-0.2832031,0.7128906-0.8496094,0.7128906
		c-0.5439453,0-0.8164062-0.2373047-0.8164062-0.7128906v-9.4526367c0-1.269043-0.4023438-2.340332-1.2070312-3.2128906
		S141.1914062,33.375,140.0351562,33.375c-1.1328125,0-2.1357422,0.4248047-3.0087891,1.2749023
		s-1.3085938,1.9780273-1.3085938,3.3833008v9.28125c0,0.1816406-0.0849609,0.3515625-0.2548828,0.5107422
		S135.09375,48.0625,134.8671875,48.0625s-0.4189453-0.0722656-0.5771484-0.2207031
		C134.1308594,47.6953125,134.0517578,47.5195312,134.0517578,47.3144531z"/>
	<path fill="#393432" d="M160.2988281,43.2011719V24.9428711c0-0.2041016,0.0849609-0.3740234,0.2548828-0.5097656
		c0.1699219-0.1362305,0.3574219-0.2041016,0.5615234-0.2041016c0.2265625,0,0.4248047,0.0678711,0.5947266,0.2041016
		c0.1699219,0.1357422,0.2548828,0.3056641,0.2548828,0.5097656v7.0722656h4.5224609
		c0.1806641,0,0.3339844,0.0737305,0.4589844,0.2207031c0.1240234,0.1479492,0.1865234,0.3232422,0.1865234,0.5273438
		c0,0.1816406-0.0673828,0.3457031-0.2041016,0.4926758c-0.1357422,0.1479492-0.2832031,0.2211914-0.4414062,0.2211914h-4.5224609
		v9.7241211c0,1.2011719,0.2607422,2.0507812,0.7822266,2.5498047s1.4277344,0.7480469,2.7197266,0.7480469h0.8505859
		c0.2255859,0,0.4130859,0.0732422,0.5605469,0.2216797c0.1474609,0.1464844,0.2207031,0.3339844,0.2207031,0.5605469
		c0,0.203125-0.0732422,0.3847656-0.2207031,0.5439453S166.5429688,48.0625,166.3173828,48.0625h-0.8505859
		C162.0214844,48.0625,160.2988281,46.4433594,160.2988281,43.2011719z"/>
	<path fill="#393432" d="M170.0234375,47.3144531v-24.581543c0-0.2041016,0.0791016-0.3740234,0.2382812-0.5097656
		c0.1582031-0.1362305,0.3505859-0.2041016,0.5771484-0.2041016c0.25,0,0.453125,0.0678711,0.6123047,0.2041016
		c0.1582031,0.1357422,0.2382812,0.3056641,0.2382812,0.5097656v11.6621094
		c0.3847656-0.7250977,0.96875-1.3374023,1.7509766-1.8359375s1.7050781-0.7480469,2.7705078-0.7480469
		c1.6542969,0,3.0830078,0.6118164,4.2841797,1.8359375s1.8017578,2.6860352,1.8017578,4.3862305v9.28125
		c0,0.5-0.2832031,0.7480469-0.8496094,0.7480469c-0.5439453,0-0.8164062-0.2480469-0.8164062-0.7480469v-9.28125
		c0-1.2011719-0.453125-2.2783203-1.359375-3.2299805c-0.9072266-0.9521484-1.9726562-1.4282227-3.1962891-1.4282227
		c-1.15625,0-2.1757812,0.4248047-3.0595703,1.2749023c-0.8847656,0.8500977-1.3261719,1.9780273-1.3261719,3.3833008v9.28125
		c0,0.1816406-0.0849609,0.3515625-0.2548828,0.5107422S171.0654297,48.0625,170.8388672,48.0625
		s-0.4189453-0.0722656-0.5771484-0.2207031C170.1025391,47.6953125,170.0234375,47.5195312,170.0234375,47.3144531z"/>
</g>
</svg>
